<?xml version="1.0" encoding="UTF-8" standalone="no"?>
<!-- Created with Inkscape (http://www.inkscape.org/) -->

<svg
   width="162mm"
   height="162mm"
   viewBox="-5 -5 162 162"
   version="1.1"
   id="svg14181"
   inkscape:version="1.2.2 (b0a8486541, 2022-12-01)"
   sodipodi:docname="logo.svg"
   inkscape:export-filename="logo.png"
   inkscape:export-xdpi="9.4511633"
   inkscape:export-ydpi="9.4511633"
   xmlns:inkscape="http://www.inkscape.org/namespaces/inkscape"
   xmlns:sodipodi="http://sodipodi.sourceforge.net/DTD/sodipodi-0.dtd"
   xmlns="http://www.w3.org/2000/svg"
   xmlns:svg="http://www.w3.org/2000/svg">
  <sodipodi:namedview
     id="namedview14183"
     pagecolor="#ffffff"
     bordercolor="#000000"
     borderopacity="0.25"
     inkscape:showpageshadow="2"
     inkscape:pageopacity="0"
     inkscape:pagecheckerboard="0"
     inkscape:deskcolor="#d1d1d1"
     inkscape:document-units="mm"
     showgrid="false"
     inkscape:zoom="0.95129863"
     inkscape:cx="917.1673"
     inkscape:cy="183.95906"
     inkscape:window-width="3440"
     inkscape:window-height="1372"
     inkscape:window-x="1920"
     inkscape:window-y="0"
     inkscape:window-maximized="1"
     inkscape:current-layer="layer1"
     showguides="true" />
  <defs
     id="defs14178" />
  <g
     inkscape:label="Calque 1"
     inkscape:groupmode="layer"
     id="layer1"
     transform="translate(-9.754093,-35.298644)">
    <g
       id="g19683"
       inkscape:export-filename="./g19683.png"
       inkscape:export-xdpi="10.034568"
       inkscape:export-ydpi="10.034568">
      <g
         id="rect18659"
         transform="translate(-23.249154,2.1438907)"
         style="opacity:0">
        <path
           style="color:#000000;fill:#4d4d4d;stroke-linecap:round;stroke-linejoin:round;-inkscape-stroke:none"
           d="m 51.003247,28.154753 c -12.70202,0.0013 -22.99873,10.297977 -23,23 V 167.15475 c 10e-4,12.70202 10.29798,22.99873 23,23 H 167.00325 c 12.70202,-0.001 22.99873,-10.29798 23,-23 V 51.154753 c -0.001,-12.702023 -10.29798,-22.99873 -23,-23 z"
           id="path19598"
           sodipodi:nodetypes="ccccccccc" />
      </g>
      <g
         id="g11960"
         transform="translate(-221.52516,-96.551283)">
        <g
           id="rect925-7"
           transform="matrix(1.3157895,0,0,1.1403509,77.859287,129.00562)"
           style="fill:#389826;fill-opacity:1;stroke-width:0.816371">
          <path
             style="color:#000000;fill:#389826;fill-opacity:1;stroke-width:20.4092;stroke-linecap:round;stroke-linejoin:round;-inkscape-stroke:none"
             d="m 133.43791,20 h 32 v 32 h -32 z"
             id="path1682-0" />
          <path
             style="color:#000000;fill:#389826;fill-opacity:1;stroke-width:0.770433;stroke-linecap:round;stroke-linejoin:round;-inkscape-stroke:none"
             d="m 133.4375,7.5 c -6.90327,6.902e-4 -12.49931,5.596727 -12.5,12.5 v 32 c 6.9e-4,6.903273 5.59673,12.49931 12.5,12.5 h 32 c 6.90327,-6.9e-4 12.49931,-5.596727 12.5,-12.5 V 20 c -6.9e-4,-6.903273 -5.59673,-12.4993098 -12.5,-12.5 z"
             id="path1684-9"
             sodipodi:nodetypes="ccccccccc" />
        </g>
        <g
           id="rect925-36-3"
           transform="matrix(0.96491228,0,0,1.1403509,205.87684,129.00562)"
           style="fill:#4063d8;fill-opacity:1;stroke-width:0.953318">
          <path
             style="color:#000000;fill:#4063d8;fill-opacity:1;stroke-width:23.8329;stroke-linecap:round;stroke-linejoin:round;-inkscape-stroke:none"
             d="m 133.43791,20 h 32 v 32 h -32 z"
             id="path1682-7-6" />
          <path
             style="color:#000000;fill:#4063d8;fill-opacity:1;stroke-width:0.899673;stroke-linecap:round;stroke-linejoin:round;-inkscape-stroke:none"
             d="m 133.4375,7.5 c -6.90327,6.902e-4 -12.49931,5.596727 -12.5,12.5 v 32 c 6.9e-4,6.903273 5.59673,12.49931 12.5,12.5 h 32 c 6.90327,-6.9e-4 12.49931,-5.596727 12.5,-12.5 V 20 c -6.9e-4,-6.903273 -5.59673,-12.4993098 -12.5,-12.5 z"
             id="path1684-5-0"
             sodipodi:nodetypes="ccccccccc" />
        </g>
        <g
           id="rect925-35-6"
           transform="matrix(0.87719298,0,0,1.1403509,130.90205,204.58896)"
           style="stroke-width:0.999846">
          <path
             style="color:#000000;fill:#9558b2;stroke-width:24.9961;stroke-linecap:round;stroke-linejoin:round;-inkscape-stroke:none"
             d="m 133.43791,20 h 32 v 32 h -32 z"
             id="path1682-6-2" />
          <path
             style="color:#000000;fill:#cb3c33;fill-opacity:1;stroke-width:0.943579;stroke-linecap:round;stroke-linejoin:round;-inkscape-stroke:none"
             d="m 133.4375,7.5 c -6.90327,6.902e-4 -12.49931,5.596727 -12.5,12.5 v 32 c 6.9e-4,6.903273 5.59673,12.49931 12.5,12.5 h 32 c 6.90327,-6.9e-4 12.49931,-5.596727 12.5,-12.5 V 20 c -6.9e-4,-6.903273 -5.59673,-12.4993098 -12.5,-12.5 z"
             id="path1684-2-6"
             sodipodi:nodetypes="ccccccccc" />
        </g>
        <g
           id="rect925-35-9-1"
           transform="matrix(1.4035088,0,0,1.1403509,127.83407,204.58896)"
           style="fill:#9558b2;fill-opacity:1;stroke-width:0.790448">
          <path
             style="color:#000000;fill:#9558b2;fill-opacity:1;stroke-width:19.7611;stroke-linecap:round;stroke-linejoin:round;-inkscape-stroke:none"
             d="m 133.43791,20 h 32 v 32 h -32 z"
             id="path1682-6-1-8" />
          <path
             style="color:#000000;fill:#9558b2;fill-opacity:1;stroke-width:0.745969;stroke-linecap:round;stroke-linejoin:round;-inkscape-stroke:none"
             d="m 133.4375,7.5 c -6.90327,6.902e-4 -12.49931,5.596727 -12.5,12.5 v 32 c 6.9e-4,6.903273 5.59673,12.49931 12.5,12.5 h 32 c 6.90327,-6.9e-4 12.49931,-5.596727 12.5,-12.5 V 20 c -6.9e-4,-6.903273 -5.59673,-12.4993098 -12.5,-12.5 z"
             id="path1684-2-2-7"
             sodipodi:nodetypes="ccccccccc" />
        </g>
      </g>
    </g>
  </g>
</svg>
